<svg  width="24" height="24" viewBox="0 0 24 24" fill="none" xmlns="http://www.w3.org/2000/svg">
<path d="M0 4.75C0 3.784 0.784 3 1.75 3H22.25C23.216 3 24 3.784 24 4.75V19.25C24 19.7141 23.8156 20.1592 23.4874 20.4874C23.1592 20.8156 22.7141 21 22.25 21H1.75C1.28587 21 0.840752 20.8156 0.512563 20.4874C0.184374 20.1592 0 19.7141 0 19.25L0 4.75ZM1.75 4.5C1.6837 4.5 1.62011 4.52634 1.57322 4.57322C1.52634 4.62011 1.5 4.6837 1.5 4.75V19.25C1.5 19.388 1.612 19.5 1.75 19.5H22.25C22.3163 19.5 22.3799 19.4737 22.4268 19.4268C22.4737 19.3799 22.5 19.3163 22.5 19.25V4.75C22.5 4.6837 22.4737 4.62011 22.4268 4.57322C22.3799 4.52634 22.3163 4.5 22.25 4.5H1.75Z" fill="black"/>
<path d="M9 15.584V8.41604C9.00015 8.32635 9.02442 8.23836 9.07026 8.16128C9.11611 8.0842 9.18184 8.02087 9.26057 7.97792C9.33931 7.93498 9.42814 7.914 9.51777 7.91719C9.6074 7.92037 9.69452 7.94761 9.77 7.99604L15.346 11.579C15.4166 11.6243 15.4747 11.6865 15.5149 11.7601C15.5552 11.8337 15.5763 11.9162 15.5763 12C15.5763 12.0839 15.5552 12.1664 15.5149 12.24C15.4747 12.3135 15.4166 12.3758 15.346 12.421L9.77 16.005C9.69452 16.0535 9.6074 16.0807 9.51777 16.0839C9.42814 16.0871 9.33931 16.0661 9.26057 16.0232C9.18184 15.9802 9.11611 15.9169 9.07026 15.8398C9.02442 15.7627 9.00015 15.6747 9 15.585V15.584Z" fill="black"/>
</svg>
