<svg width="25" height="24" viewBox="0 0 25 24" fill="none" xmlns="http://www.w3.org/2000/svg">
<path d="M10.6961 20.9402C10.6961 21.3628 10.5706 21.7759 10.3355 22.1273C10.1005 22.4787 9.76638 22.7525 9.37549 22.9143C8.9846 23.076 8.55448 23.1183 8.13951 23.0359C7.72454 22.9534 7.34337 22.7499 7.0442 22.4511C6.74502 22.1523 6.54128 21.7715 6.45874 21.357C6.3762 20.9425 6.41856 20.5129 6.58048 20.1225C6.74239 19.732 7.01658 19.3983 7.36837 19.1635C7.72016 18.9287 8.13375 18.8034 8.55685 18.8034C9.12334 18.8062 9.66582 19.0322 10.0664 19.4324C10.467 19.8325 10.6933 20.3743 10.6961 20.9402ZM19.6808 18.8034C19.2577 18.8034 18.8441 18.9287 18.4923 19.1635C18.1405 19.3983 17.8663 19.732 17.7044 20.1225C17.5425 20.5129 17.5001 20.9425 17.5826 21.357C17.6652 21.7715 17.8689 22.1523 18.1681 22.4511C18.4673 22.7499 18.8484 22.9534 19.2634 23.0359C19.6784 23.1183 20.1085 23.076 20.4994 22.9143C20.8903 22.7525 21.2244 22.4787 21.4594 22.1273C21.6945 21.7759 21.82 21.3628 21.82 20.9402C21.8172 20.3743 21.5909 19.8325 21.1903 19.4324C20.7897 19.0322 20.2472 18.8062 19.6808 18.8034ZM24.9539 5.90812L22.3655 14.9252C22.1851 15.5488 21.8072 16.0972 21.2885 16.4883C20.7697 16.8793 20.1381 17.0918 19.4882 17.094H8.74938C8.09952 17.0918 7.46788 16.8793 6.94914 16.4883C6.43041 16.0972 6.05252 15.5488 5.87214 14.9252L3.29439 5.92949C3.29439 5.9188 3.28369 5.89744 3.28369 5.88675L2.33174 2.5641H1.28353C0.943115 2.5641 0.616645 2.42903 0.375936 2.1886C0.135228 1.94817 0 1.62207 0 1.28205C0 0.94203 0.135228 0.615935 0.375936 0.375504C0.616645 0.135073 0.943115 0 1.28353 0H2.65262C3.1174 0.00352113 3.56878 0.155918 3.94037 0.434777C4.31197 0.713636 4.58418 1.10424 4.71696 1.54915L5.48708 4.2735H23.7132C23.9117 4.27464 24.1073 4.32138 24.2849 4.41011C24.4624 4.49884 24.6171 4.62718 24.7371 4.7852C24.857 4.94322 24.939 5.12669 24.9766 5.32141C25.0142 5.51613 25.0064 5.71688 24.9539 5.90812ZM22.0125 6.83761H6.22511L8.33223 14.2201C8.3596 14.3094 8.41485 14.3877 8.48989 14.4434C8.56494 14.4991 8.65586 14.5294 8.74938 14.5299H19.4882C19.5817 14.5294 19.6727 14.4991 19.7477 14.4434C19.8228 14.3877 19.878 14.3094 19.9054 14.2201L22.0125 6.83761Z" fill="#F2184F"/>
</svg>
