<svg width="75" height="50" viewBox="0 0 75 50" fill="none" xmlns="http://www.w3.org/2000/svg">
<path d="M34.1242 21V2.81818H37.9683V17.8306H45.7631V21H34.1242ZM54.4522 21.2663C53.0495 21.2663 51.8422 20.9822 50.8301 20.4141C49.8239 19.84 49.0486 19.0291 48.5041 17.9815C47.9596 16.928 47.6873 15.6822 47.6873 14.244C47.6873 12.8413 47.9596 11.6102 48.5041 10.5508C49.0486 9.49136 49.815 8.66572 50.8034 8.07386C51.7978 7.48201 52.9637 7.18608 54.3013 7.18608C55.2009 7.18608 56.0384 7.33108 56.8137 7.62109C57.595 7.90518 58.2756 8.33428 58.8556 8.90838C59.4416 9.48248 59.8973 10.2045 60.2228 11.0746C60.5484 11.9387 60.7111 12.9508 60.7111 14.1108V15.1495H49.1966V12.8058H57.1511C57.1511 12.2612 57.0327 11.7789 56.796 11.3587C56.5592 10.9384 56.2308 10.61 55.8105 10.3732C55.3962 10.1306 54.9139 10.0092 54.3635 10.0092C53.7894 10.0092 53.2804 10.1424 52.8365 10.4087C52.3985 10.6692 52.0552 11.0213 51.8066 11.4652C51.5581 11.9032 51.4308 12.3915 51.4249 12.93V15.1584C51.4249 15.8331 51.5492 16.4161 51.7978 16.9073C52.0523 17.3986 52.4103 17.7773 52.872 18.0437C53.3336 18.31 53.8811 18.4432 54.5144 18.4432C54.9346 18.4432 55.3193 18.384 55.6685 18.2656C56.0177 18.1473 56.3166 17.9697 56.5652 17.733C56.8137 17.4962 57.0031 17.2062 57.1333 16.8629L60.6312 17.0938C60.4537 17.9342 60.0897 18.6681 59.5392 19.2955C58.9947 19.9169 58.2904 20.4022 57.4263 20.7514C56.5681 21.0947 55.5768 21.2663 54.4522 21.2663ZM70.4324 7.36364V10.2045H62.2203V7.36364H70.4324ZM64.0847 4.09659H67.8667V16.8097C67.8667 17.1589 67.9199 17.4311 68.0265 17.6264C68.133 17.8158 68.281 17.949 68.4703 18.0259C68.6657 18.1029 68.8906 18.1413 69.1451 18.1413C69.3226 18.1413 69.5002 18.1265 69.6777 18.0969C69.8553 18.0614 69.9914 18.0348 70.0861 18.017L70.6809 20.8313C70.4915 20.8905 70.2252 20.9586 69.8819 21.0355C69.5386 21.1184 69.1214 21.1687 68.6301 21.1864C67.7187 21.2219 66.9197 21.1006 66.2331 20.8224C65.5525 20.5443 65.0228 20.1122 64.644 19.5263C64.2652 18.9403 64.0788 18.2005 64.0847 17.3068V4.09659Z" fill="#202C45"/>
<path d="M12.8473 31.0472C12.7763 30.3311 12.4715 29.7747 11.9329 29.3782C11.3943 28.9817 10.6634 28.7834 9.7401 28.7834C9.11273 28.7834 8.58302 28.8722 8.15097 29.0497C7.71891 29.2214 7.38747 29.4611 7.15665 29.7688C6.93174 30.0766 6.81929 30.4258 6.81929 30.8164C6.80745 31.1419 6.87552 31.426 7.02348 31.6687C7.17736 31.9113 7.38747 32.1214 7.65381 32.299C7.92014 32.4706 8.22791 32.6216 8.5771 32.7518C8.9263 32.8761 9.29917 32.9826 9.69571 33.0714L11.3292 33.462C12.1223 33.6396 12.8503 33.8763 13.5132 34.1722C14.1761 34.4682 14.7502 34.8321 15.2355 35.2642C15.7208 35.6963 16.0966 36.2053 16.363 36.7912C16.6352 37.3771 16.7743 38.0489 16.7802 38.8065C16.7743 39.9192 16.4902 40.8839 15.928 41.7006C15.3716 42.5115 14.5667 43.1418 13.5132 43.5916C12.4656 44.0355 11.202 44.2575 9.72235 44.2575C8.25454 44.2575 6.97613 44.0326 5.88712 43.5827C4.80402 43.1329 3.95767 42.4671 3.34806 41.5852C2.74436 40.6974 2.42772 39.5996 2.39813 38.2915H6.11794C6.15937 38.9012 6.33397 39.4102 6.64173 39.8185C6.95542 40.221 7.37268 40.5258 7.89351 40.733C8.42026 40.9342 9.01508 41.0348 9.67796 41.0348C10.329 41.0348 10.8942 40.9401 11.3736 40.7507C11.8589 40.5613 12.2348 40.2979 12.5011 39.9606C12.7674 39.6232 12.9006 39.2356 12.9006 38.7976C12.9006 38.3892 12.7793 38.0459 12.5366 37.7678C12.2999 37.4896 11.9507 37.2528 11.489 37.0575C11.0333 36.8622 10.474 36.6847 9.81112 36.5249L7.83137 36.0277C6.29846 35.6548 5.08811 35.0719 4.20033 34.2788C3.31254 33.4857 2.87161 32.4174 2.87753 31.0739C2.87161 29.973 3.16458 29.0112 3.75644 28.1886C4.35421 27.3659 5.17393 26.7237 6.2156 26.2621C7.25727 25.8004 8.44098 25.5696 9.76674 25.5696C11.1162 25.5696 12.294 25.8004 13.3001 26.2621C14.3122 26.7237 15.0994 27.3659 15.6616 28.1886C16.2239 29.0112 16.5139 29.9641 16.5316 31.0472H12.8473ZM26.5481 30.3636V33.2045H18.3361V30.3636H26.5481ZM20.2004 27.0966H23.9824V39.8097C23.9824 40.1589 24.0356 40.4311 24.1422 40.6264C24.2487 40.8158 24.3967 40.949 24.5861 41.0259C24.7814 41.1029 25.0063 41.1413 25.2608 41.1413C25.4383 41.1413 25.6159 41.1265 25.7935 41.0969C25.971 41.0614 26.1071 41.0348 26.2018 41.017L26.7967 43.8313C26.6073 43.8905 26.3409 43.9586 25.9976 44.0355C25.6544 44.1184 25.2371 44.1687 24.7459 44.1864C23.8344 44.2219 23.0354 44.1006 22.3489 43.8224C21.6682 43.5443 21.1385 43.1122 20.7597 42.5263C20.3809 41.9403 20.1945 41.2005 20.2004 40.3068V27.0966ZM37.7563 38.1939V30.3636H41.5383V44H37.9073V41.5231H37.7652C37.4575 42.3221 36.9455 42.9643 36.2294 43.4496C35.5191 43.9349 34.6521 44.1776 33.6282 44.1776C32.7167 44.1776 31.9147 43.9704 31.2223 43.5561C30.5298 43.1418 29.9882 42.5529 29.5976 41.7894C29.2129 41.0259 29.0176 40.1115 29.0117 39.0462V30.3636H32.7936V38.3714C32.7996 39.1764 33.0156 39.8126 33.4417 40.2802C33.8679 40.7478 34.439 40.9815 35.1551 40.9815C35.6109 40.9815 36.037 40.878 36.4335 40.6708C36.8301 40.4577 37.1497 40.1441 37.3924 39.7298C37.6409 39.3155 37.7623 38.8035 37.7563 38.1939ZM49.5883 44.2219C48.5525 44.2219 47.6145 43.9556 46.774 43.4229C45.9395 42.8844 45.2766 42.0942 44.7854 41.0526C44.3001 40.005 44.0574 38.7206 44.0574 37.1996C44.0574 35.6371 44.3089 34.3379 44.812 33.3022C45.3151 32.2605 45.9839 31.4822 46.8184 30.9673C47.6588 30.4465 48.5792 30.1861 49.5794 30.1861C50.3429 30.1861 50.9792 30.3163 51.4881 30.5767C52.0031 30.8312 52.4174 31.1508 52.731 31.5355C53.0506 31.9143 53.2933 32.2872 53.459 32.6541H53.5744V25.8182H57.3475V44H53.6188V41.8161H53.459C53.2815 42.1948 53.0299 42.5707 52.7044 42.9435C52.3848 43.3105 51.9676 43.6153 51.4526 43.858C50.9436 44.1006 50.3222 44.2219 49.5883 44.2219ZM50.7868 41.2124C51.3964 41.2124 51.9113 41.0466 52.3315 40.7152C52.7577 40.3778 53.0832 39.9073 53.3081 39.3036C53.5389 38.6999 53.6543 37.9927 53.6543 37.1818C53.6543 36.371 53.5419 35.6667 53.317 35.0689C53.0921 34.4711 52.7666 34.0095 52.3404 33.6839C51.9143 33.3584 51.3964 33.1957 50.7868 33.1957C50.1654 33.1957 49.6416 33.3643 49.2154 33.7017C48.7893 34.0391 48.4667 34.5066 48.2477 35.1044C48.0287 35.7022 47.9193 36.3946 47.9193 37.1818C47.9193 37.9749 48.0287 38.6763 48.2477 39.2859C48.4726 39.8896 48.7952 40.363 49.2154 40.7063C49.6416 41.0437 50.1654 41.2124 50.7868 41.2124ZM62.7919 49.1136C62.3125 49.1136 61.8626 49.0752 61.4424 48.9982C61.0281 48.9272 60.6849 48.8355 60.4126 48.723L61.2649 45.8999C61.7088 46.036 62.1083 46.11 62.4634 46.1218C62.8244 46.1336 63.1351 46.0508 63.3956 45.8732C63.6619 45.6957 63.8779 45.3938 64.0436 44.9677L64.2656 44.3906L59.3739 30.3636H63.3512L66.1743 40.3778H66.3164L69.1661 30.3636H73.1701L67.87 45.4737C67.6155 46.2076 67.2693 46.8468 66.8313 47.3913C66.3992 47.9418 65.8518 48.3649 65.1889 48.6609C64.526 48.9627 63.727 49.1136 62.7919 49.1136Z" fill="#F2184F"/>
<path d="M17.5834 10.1406C17.5834 9.98433 17.64 9.82357 17.7532 9.65829C17.8664 9.49302 17.9917 9.38468 18.1292 9.33329C18.6327 9.15968 19.1362 9.02947 19.6397 8.94267C20.1431 8.85586 20.673 8.81246 21.2292 8.81246C21.5765 8.81246 21.9195 8.83433 22.2584 8.87808C22.5973 8.92183 22.9313 8.97808 23.2605 9.04683C23.4167 9.08156 23.5515 9.16836 23.6647 9.30725C23.7779 9.44614 23.8341 9.60239 23.8334 9.776C23.8334 10.0711 23.7379 10.2882 23.547 10.427C23.356 10.5659 23.1129 10.6007 22.8178 10.5312C22.5747 10.4791 22.3188 10.4399 22.0501 10.4135C21.7813 10.3871 21.5077 10.3743 21.2292 10.375C20.7779 10.375 20.3352 10.4184 19.9011 10.5052C19.4671 10.592 19.0504 10.7048 18.6511 10.8437C18.3386 10.9652 18.0827 10.9566 17.8834 10.8177C17.6841 10.6788 17.5841 10.4531 17.5834 10.1406ZM17.5834 15.8698C17.5834 15.7135 17.64 15.5527 17.7532 15.3875C17.8664 15.2222 17.9921 15.1138 18.1303 15.0625C18.6338 14.8888 19.1372 14.7586 19.6407 14.6718C20.1442 14.585 20.6737 14.5416 21.2292 14.5416C21.5765 14.5416 21.9195 14.5635 22.2584 14.6073C22.5973 14.651 22.9313 14.7073 23.2605 14.776C23.4167 14.8107 23.5515 14.8975 23.6647 15.0364C23.7779 15.1753 23.8341 15.3316 23.8334 15.5052C23.8334 15.8003 23.7379 16.0173 23.547 16.1562C23.356 16.2951 23.1129 16.3298 22.8178 16.2604C22.5747 16.2083 22.3188 16.1691 22.0501 16.1427C21.7813 16.1163 21.5077 16.1034 21.2292 16.1041C20.7779 16.1041 20.3352 16.1434 19.9011 16.2218C19.4671 16.3003 19.0504 16.4086 18.6511 16.5468C18.3386 16.6684 18.0824 16.6638 17.8824 16.5333C17.6824 16.4027 17.5827 16.1819 17.5834 15.8708V15.8698ZM17.5834 13.0052C17.5834 12.8489 17.64 12.6882 17.7532 12.5229C17.8664 12.3576 17.9921 12.2493 18.1303 12.1979C18.6338 12.0243 19.1372 11.8941 19.6407 11.8073C20.1442 11.7204 20.6737 11.677 21.2292 11.677C21.5765 11.677 21.9195 11.6989 22.2584 11.7427C22.5973 11.7864 22.9313 11.8427 23.2605 11.9114C23.4167 11.9461 23.5515 12.0329 23.6647 12.1718C23.7779 12.3107 23.8341 12.467 23.8334 12.6406C23.8334 12.9357 23.7379 13.1527 23.547 13.2916C23.356 13.4305 23.1129 13.4652 22.8178 13.3958C22.5747 13.3437 22.3188 13.3045 22.0501 13.2781C21.7813 13.2517 21.5077 13.2388 21.2292 13.2395C20.7779 13.2395 20.3352 13.2829 19.9011 13.3698C19.4671 13.4566 19.0504 13.5694 18.6511 13.7083C18.3386 13.8298 18.0827 13.8211 17.8834 13.6823C17.6841 13.5434 17.5841 13.3177 17.5834 13.0052ZM9.77091 17.6666C10.5869 17.6666 11.3813 17.7579 12.1542 17.9406C12.9272 18.1232 13.6952 18.3965 14.4584 18.7604V8.49996C13.7466 8.08329 12.9914 7.77079 12.1928 7.56246C11.3942 7.35413 10.5869 7.24996 9.77091 7.24996C9.14591 7.24996 8.52508 7.31072 7.90841 7.43225C7.29175 7.55378 6.6973 7.73607 6.12508 7.97913V18.2916C6.73272 18.0833 7.33619 17.927 7.9355 17.8229C8.5348 17.7187 9.14661 17.6666 9.77091 17.6666ZM16.5417 18.7604C17.3056 18.3958 18.0737 18.1222 18.8459 17.9395C19.6181 17.7569 20.4126 17.6659 21.2292 17.6666C21.8542 17.6666 22.4664 17.7187 23.0657 17.8229C23.665 17.927 24.2681 18.0833 24.8751 18.2916V7.97913C24.3022 7.73607 23.7074 7.55378 23.0907 7.43225C22.474 7.31072 21.8536 7.24996 21.2292 7.24996C20.4133 7.24996 19.606 7.35413 18.8074 7.56246C18.0088 7.77079 17.2536 8.08329 16.5417 8.49996V18.7604ZM15.5001 21.2864C15.257 21.2864 15.0268 21.2559 14.8095 21.1948C14.5921 21.1336 14.3883 21.0513 14.198 20.9479C13.5209 20.5486 12.8091 20.2493 12.0626 20.05C11.3161 19.8507 10.5522 19.7507 9.77091 19.75C9.04175 19.75 8.32543 19.8454 7.62196 20.0364C6.91848 20.2274 6.24591 20.4965 5.60425 20.8437C5.23966 21.0347 4.88828 21.026 4.55008 20.8177C4.21189 20.6093 4.04244 20.3055 4.04175 19.9062V7.35413C4.04175 7.16315 4.08966 6.98086 4.1855 6.80725C4.28133 6.63364 4.42439 6.50343 4.61466 6.41663C5.41328 5.99996 6.24661 5.68746 7.11466 5.47913C7.98272 5.27079 8.86814 5.16663 9.77091 5.16663C10.7779 5.16663 11.7633 5.29683 12.7272 5.55725C13.6911 5.81767 14.6154 6.20829 15.5001 6.72913C16.3855 6.20829 17.3102 5.81767 18.274 5.55725C19.2379 5.29683 20.223 5.16663 21.2292 5.16663C22.132 5.16663 23.0174 5.27079 23.8855 5.47913C24.7536 5.68746 25.5869 5.99996 26.3855 6.41663C26.5765 6.50343 26.7199 6.63364 26.8157 6.80725C26.9115 6.98086 26.9591 7.16315 26.9584 7.35413V19.9062C26.9584 20.3055 26.7893 20.6093 26.4511 20.8177C26.1129 21.026 25.7612 21.0347 25.3959 20.8437C24.7536 20.4965 24.081 20.2274 23.3782 20.0364C22.6754 19.8454 21.9591 19.75 21.2292 19.75C20.448 19.75 19.6841 19.85 18.9376 20.05C18.1911 20.25 17.4792 20.5493 16.8022 20.9479C16.6112 21.052 16.407 21.1347 16.1897 21.1958C15.9723 21.2569 15.7424 21.2871 15.5001 21.2864Z" fill="#202C45"/>
</svg>
