<svg width="17" height="17" viewBox="0 0 17 17" fill="none" xmlns="http://www.w3.org/2000/svg">
<path d="M15.15 16.375L9.6375 10.8625C9.2 11.2125 8.69687 11.4896 8.12812 11.6937C7.55937 11.8979 6.95417 12 6.3125 12C4.72292 12 3.37775 11.4493 2.277 10.348C1.17625 9.24667 0.625583 7.9015 0.625 6.3125C0.625 4.72292 1.17567 3.37775 2.277 2.277C3.37833 1.17625 4.7235 0.625583 6.3125 0.625C7.90208 0.625 9.24725 1.17567 10.348 2.277C11.4488 3.37833 11.9994 4.7235 12 6.3125C12 6.95417 11.8979 7.55937 11.6937 8.12812C11.4896 8.69687 11.2125 9.2 10.8625 9.6375L16.375 15.15L15.15 16.375ZM6.3125 10.25C7.40625 10.25 8.33608 9.86704 9.102 9.10113C9.86792 8.33521 10.2506 7.40567 10.25 6.3125C10.25 5.21875 9.86704 4.28892 9.10113 3.523C8.33521 2.75708 7.40567 2.37442 6.3125 2.375C5.21875 2.375 4.28892 2.75796 3.523 3.52388C2.75708 4.28979 2.37442 5.21933 2.375 6.3125C2.375 7.40625 2.75796 8.33608 3.52388 9.102C4.28979 9.86792 5.21933 10.2506 6.3125 10.25Z" fill="#F2184F" fill-opacity="0.7"/>
</svg>
