<svg width="23" height="23" viewBox="0 0 23 23" fill="none" xmlns="http://www.w3.org/2000/svg">
<path d="M10.5417 7.66665V12.4583L14.6146 14.8733L15.3525 13.6467L11.9792 11.6437V7.66665H10.5417ZM20.125 9.58332V2.87499L17.595 5.40499C16.7969 4.60116 15.8472 3.96366 14.801 3.52938C13.7547 3.0951 12.6328 2.87268 11.5 2.87499C9.79414 2.87499 8.12658 3.38083 6.70821 4.32856C5.28984 5.27629 4.18435 6.62333 3.53154 8.19934C2.87874 9.77536 2.70793 11.5096 3.04073 13.1826C3.37353 14.8557 4.19498 16.3926 5.40121 17.5988C6.60744 18.805 8.14426 19.6265 9.81735 19.9593C11.4904 20.2921 13.2246 20.1213 14.8006 19.4685C16.3767 18.8156 17.7237 17.7102 18.6714 16.2918C19.6192 14.8734 20.125 13.2059 20.125 11.5H18.2083C18.2083 15.1992 15.1992 18.2083 11.5 18.2083C7.80084 18.2083 4.79167 15.1992 4.79167 11.5C4.79167 7.80082 7.80084 4.79165 11.5 4.79165C13.3496 4.79165 15.0267 5.54874 16.2438 6.75624L13.4167 9.58332H20.125Z" fill="white"/>
</svg>
