<svg width="20" height="20" viewBox="0 0 20 20" fill="none" xmlns="http://www.w3.org/2000/svg">
<path d="M16.4306 7.53333L12.6148 7.18333L11.1248 3.475C10.8567 2.8 9.94221 2.8 9.67416 3.475L8.18412 7.19167L4.37623 7.53333C3.68246 7.59167 3.39864 8.50833 3.92686 8.99167L6.82022 11.6417L5.953 15.575C5.79532 16.2917 6.52851 16.8583 7.12768 16.475L10.3995 14.3917L13.6713 16.4833C14.2704 16.8667 15.0036 16.3 14.8459 15.5833L13.9787 11.6417L16.8721 8.99167C17.4003 8.50833 17.1244 7.59167 16.4306 7.53333ZM10.3995 12.8333V5.08333L11.7476 8.45L15.2007 8.76667L12.5833 11.1667L13.3717 14.7333L10.3995 12.8333Z" fill="#E7C722"/>
</svg>
