<svg width="20" height="20" viewBox="0 0 20 20" fill="none" xmlns="http://www.w3.org/2000/svg">
<path d="M16.2978 7.53333L12.482 7.18333L10.992 3.475C10.7239 2.8 9.8094 2.8 9.54135 3.475L8.0513 7.19167L4.24342 7.53333C3.54964 7.59167 3.26583 8.50833 3.79404 8.99167L6.6874 11.6417L5.82018 15.575C5.66251 16.2917 6.3957 16.8583 6.99487 16.475L10.2667 14.3917L13.5384 16.4833C14.1376 16.8667 14.8708 16.3 14.7131 15.5833L13.8459 11.6417L16.7393 8.99167C17.2675 8.50833 16.9916 7.59167 16.2978 7.53333ZM10.2667 12.8333L7.30234 14.725L8.09072 11.1583L5.4733 8.75833L8.92641 8.44167L10.2667 5.08333L11.6148 8.45L15.0679 8.76667L12.4505 11.1667L13.2389 14.7333L10.2667 12.8333Z" fill="#E7C722"/>
</svg>
