<svg width="16" height="16" viewBox="0 0 16 16" fill="none" xmlns="http://www.w3.org/2000/svg">
<path d="M5.80003 11.5333C5.67781 11.4111 5.6167 11.2555 5.6167 11.0667C5.6167 10.8778 5.67781 10.7222 5.80003 10.6L8.40003 7.99999L5.80003 5.39999C5.67781 5.27777 5.6167 5.12221 5.6167 4.93333C5.6167 4.74444 5.67781 4.58888 5.80003 4.46666C5.92225 4.34444 6.07781 4.28333 6.2667 4.28333C6.45559 4.28333 6.61114 4.34444 6.73337 4.46666L9.80003 7.53332C9.8667 7.59999 9.91403 7.67221 9.94203 7.74999C9.97003 7.82777 9.98381 7.9111 9.98337 7.99999C9.98337 8.08888 9.96937 8.17221 9.94137 8.24999C9.91337 8.32777 9.86625 8.39999 9.80003 8.46666L6.73337 11.5333C6.61114 11.6555 6.45559 11.7167 6.2667 11.7167C6.07781 11.7167 5.92225 11.6555 5.80003 11.5333Z" fill="white"/>
</svg>
